<?xml version="1.0" encoding="utf-8"?>
<!-- Generator: Adobe Illustrator 26.4.1, SVG Export Plug-In . SVG Version: 6.00 Build 0)  -->
<svg version="1.1" id="Слой_1" xmlns="http://www.w3.org/2000/svg" xmlns:xlink="http://www.w3.org/1999/xlink" x="0px" y="0px"
	 viewBox="0 0 841.9 595.3" style="enable-background:new 0 0 841.9 595.3;" xml:space="preserve">
<style type="text/css">
	.st0{fill:none;stroke:#000000;stroke-width:4;stroke-linecap:round;stroke-miterlimit:10;}
	.st1{fill:none;stroke:#000000;stroke-width:4;stroke-linecap:round;stroke-linejoin:round;stroke-miterlimit:10;}
</style>
<path class="st0" d="M310,326c0,0-110,7-76,12s50,5,50,5s-295,57-258,52s279-23,279-23"/>
<path class="st1" d="M316,357c0,0-2-8-4-8s36-3,36-3s-19,10-13,11s49-14,49-14s-15,7-7,8s57-15,57-15l-15,14l31-13"/>
<line class="st1" x1="433" y1="348" x2="501" y2="343"/>
<path class="st1" d="M489,313c0,0-110-1-165-13s-10-23,46-30s335-28,335-28"/>
<line class="st1" x1="587" y1="260" x2="476" y2="430"/>
<path class="st1" d="M601,324c0,0-2-4-24,5s-21,11-2,6s25-7,25-7s-9,7-3,7s51-25,51-25s-24,22-22,22s36-10,36-10s-9,8-3,8
	s46-12,40-14s-21,13-10,12s25-10,25-12s10.8,4,23.4-3c0,0-17,12.7-2.2,10.8C750,322,767,311,767,311s-11,11,2,10s56-6,56-6"/>
<g>
	<g>
		<path d="M772.7,305.6c3.2,0,3.2-5,0-5C769.5,300.6,769.5,305.6,772.7,305.6L772.7,305.6z"/>
	</g>
</g>
<g>
	<g>
		<path d="M389,334.9c3.2,0,3.2-5,0-5C385.8,329.9,385.8,334.9,389,334.9L389,334.9z"/>
	</g>
</g>
</svg>
